<svg id="undraw_updated_resume_re_q1or" xmlns="http://www.w3.org/2000/svg" width="779.32" height="579.944" viewBox="0 0 779.32 579.944">
  <rect id="Rectangle_62" data-name="Rectangle 62" width="703.576" height="333.859" transform="translate(0.3 19.289)" fill="#e6e6e6"/>
  <rect id="Rectangle_75" data-name="Rectangle 75" width="663.339" height="278.549" transform="translate(20.419 47.918)" fill="#fff"/>
  <rect id="Rectangle_80" data-name="Rectangle 80" width="703.576" height="29.89" fill="#f33e69"/>
  <circle id="Ellipse_90" data-name="Ellipse 90" cx="5.54" cy="5.54" r="5.54" transform="translate(16.672 12.036)" fill="#fff"/>
  <circle id="Ellipse_91" data-name="Ellipse 91" cx="5.54" cy="5.54" r="5.54" transform="translate(37.7 12.036)" fill="#fff"/>
  <circle id="Ellipse_92" data-name="Ellipse 92" cx="5.54" cy="5.54" r="5.54" transform="translate(58.729 12.036)" fill="#fff"/>
  <rect id="Rectangle_15" data-name="Rectangle 15" width="93.423" height="7.022" transform="translate(402.655 90.268)" fill="#e6e6e6"/>
  <rect id="Rectangle_16" data-name="Rectangle 16" width="144.266" height="7.022" transform="translate(402.655 110.882)" fill="#f33e69"/>
  <rect id="Rectangle_17" data-name="Rectangle 17" width="117.573" height="7.022" transform="translate(404.155 130.514)" fill="#e6e6e6"/>
  <rect id="Rectangle_18" data-name="Rectangle 18" width="68.637" height="7.022" transform="translate(402.655 152.055)" fill="#e6e6e6"/>
  <rect id="Rectangle_19" data-name="Rectangle 19" width="103.592" height="7.022" transform="translate(402.655 173.095)" fill="#f33e69"/>
  <rect id="Rectangle_20" data-name="Rectangle 20" width="11.44" height="11.44" transform="translate(360.074 88.059)" fill="#e6e6e6"/>
  <path id="Path_23" data-name="Path 23" d="M0,0H11.44V11.439H0Z" transform="translate(360.074 108.673)" fill="#f33e69"/>
  <rect id="Rectangle_22" data-name="Rectangle 22" width="11.44" height="11.44" transform="translate(360.074 128.305)" fill="#e6e6e6"/>
  <rect id="Rectangle_23" data-name="Rectangle 23" width="11.44" height="11.44" transform="translate(360.074 149.846)" fill="#e6e6e6"/>
  <rect id="Rectangle_24" data-name="Rectangle 24" width="11.44" height="11.44" transform="translate(360.074 170.887)" fill="#f33e69"/>
  <rect id="Rectangle_25" data-name="Rectangle 25" width="93.423" height="7.022" transform="translate(402.655 194.268)" fill="#e6e6e6"/>
  <path id="Path_20" data-name="Path 20" d="M0,0H144.266V7.022H0Z" transform="translate(402.655 214.882)" fill="#f33e69"/>
  <rect id="Rectangle_27" data-name="Rectangle 27" width="117.573" height="7.022" transform="translate(404.155 234.514)" fill="#e6e6e6"/>
  <rect id="Rectangle_28" data-name="Rectangle 28" width="68.637" height="7.022" transform="translate(402.655 256.055)" fill="#e6e6e6"/>
  <rect id="Rectangle_29" data-name="Rectangle 29" width="103.592" height="7.022" transform="translate(402.655 277.095)" fill="#e6e6e6"/>
  <rect id="Rectangle_30" data-name="Rectangle 30" width="11.44" height="11.44" transform="translate(360.074 192.059)" fill="#e6e6e6"/>
  <rect id="Rectangle_31" data-name="Rectangle 31" width="11.44" height="11.439" transform="translate(360.074 212.673)" fill="#f33e69"/>
  <rect id="Rectangle_32" data-name="Rectangle 32" width="11.44" height="11.44" transform="translate(360.074 232.305)" fill="#e6e6e6"/>
  <rect id="Rectangle_33" data-name="Rectangle 33" width="11.44" height="11.44" transform="translate(360.074 253.846)" fill="#e6e6e6"/>
  <rect id="Rectangle_34" data-name="Rectangle 34" width="11.44" height="11.44" transform="translate(360.074 274.887)" fill="#e6e6e6"/>
  <path id="Path_21" data-name="Path 21" d="M0,0H93.423V7.022H0Z" transform="translate(107.112 249.347)" fill="#f33e69"/>
  <path id="Path_22" data-name="Path 22" d="M0,0H117.573V7.022H0Z" transform="translate(94.612 267.593)" fill="#f33e69"/>
  <path id="Path_1" data-name="Path 1" d="M424.884,320.8a61.023,61.023,0,0,1-89.925,53.721l-.012-.012a61,61,0,1,1,89.936-53.71Z" transform="translate(-210.34 -160.028)" fill="#f33e69"/>
  <circle id="Ellipse_1" data-name="Ellipse 1" cx="16.583" cy="16.583" r="16.583" transform="translate(137.273 124.644)" fill="#fff"/>
  <path id="Path_2" data-name="Path 2" d="M392.51,352.1a85.47,85.47,0,0,1-57.239-.222l-.012-.008,12.354-24.386h33.165Z" transform="translate(-210.34 -160.028)" fill="#fff"/>
  <path id="Path_3" data-name="Path 3" d="M656.072,567.394H643.813l-5.833-47.288h18.1Z" fill="#ffb7b7"/>
  <path id="Path_4" data-name="Path 4" d="M869.539,739.306H830.008v-.5a15.387,15.387,0,0,1,15.385-15.386H869.54Z" transform="translate(-210.34 -160.028)" fill="#2f2e41"/>
  <path id="Path_5" data-name="Path 5" d="M686.016,567.394h12.26l5.832-47.288H686.014Z" fill="#ffb7b7"/>
  <path id="Path_6" data-name="Path 6" d="M893.229,723.42h24.145A15.387,15.387,0,0,1,932.76,738.8v.5H893.23Z" transform="translate(-210.34 -160.028)" fill="#2f2e41"/>
  <circle id="Ellipse_2" data-name="Ellipse 2" cx="21.428" cy="21.428" r="21.428" transform="translate(605.43 197.978) rotate(-63.58)" fill="#ffb7b7"/>
  <path id="Path_7" data-name="Path 7" d="M828.719,495.759s-6.767,28.195-3.383,41.728S838.869,643.5,838.869,643.5l6.767,73.307,27.067,2.256L869.32,633.35l3.383-74.435,19.173,72.179v85.968l28.706,1.128.617-111.907s2.256-87.968-12.406-99.246S891.876,493.5,891.876,493.5Z" transform="translate(-210.34 -160.028)" fill="#2f2e41"/>
  <path id="Path_8" data-name="Path 8" d="M869.58,371.7l25.679,13.534,3.383,117.291s-14.661-9.022-37.217,2.256-37.217,3.383-37.217,3.383l13.534-50.751L832.1,389.746l8.065-7.32Z" transform="translate(-210.34 -160.028)" fill="#cbcbcb"/>
  <path id="Path_9" data-name="Path 9" d="M840.17,380.291l-4.685,3.816s-29.323,14.661-30.451,24.811l20.3,55.262s5.639,12.406,1.128,16.917-9.022,15.789-7.895,21.428-6.767,29.323,2.256,29.323,30.451-54.134,29.323-75.562S848.239,378.73,840.17,380.291Z" transform="translate(-210.34 -160.028)" fill="#2f2e41"/>
  <path id="Path_10" data-name="Path 10" d="M859.884,372.972l10.33-1.719S908.559,381.4,914.2,398.32l-15.789,39.473s11.278,72.179,7.895,72.179H902.92s9.022,6.767,3.383,9.022-19.173,20.3-22.556,12.406-23.684-101.5-21.428-121.8S857.881,375.1,859.884,372.972Z" transform="translate(-210.34 -160.028)" fill="#2f2e41"/>
  <path id="Path_11" data-name="Path 11" d="M864.367,327.366l1-2.02-5.05-2.509s-5.571-9.065-15.652-6.517-14.616,4.072-14.616,4.072l-5.037,2.535,2.528,2.515-4.535,1.525,3.03,1.505-3.525,2.026,1.9,10.388s3.152-7.879,9.212-4.868,17.145-1.556,17.145-1.556L860.4,353.1s1.987-6.533,5.529-4.791C865.926,348.307,874.976,333.9,864.367,327.366Z" transform="translate(-210.34 -160.028)" fill="#2f2e41"/>
  <path id="Path_12" data-name="Path 12" d="M895.736,525.265a10.056,10.056,0,0,1,7.187-13.642l4.341-35.47,14.146,12.031-6.291,31.839a10.11,10.11,0,0,1-19.383,5.243Z" transform="translate(-210.34 -160.028)" fill="#ffb7b7"/>
  <path id="Path_13" data-name="Path 13" d="M835.234,522.824a10.056,10.056,0,0,0-8.593-12.8l-8.078-34.81-12.79,13.463,9.632,30.992a10.11,10.11,0,0,0,19.829,3.158Z" transform="translate(-210.34 -160.028)" fill="#ffb7b7"/>
  <path id="Path_14" data-name="Path 14" d="M896.281,389.129s14.661-5.639,19.173,11.278,10.15,50.751,10.15,50.751c.28,18.814-.72,18.814,0,37.217l-3.383,16.917-19.173-2.256.836-43.065L894.026,416.2Z" transform="translate(-210.34 -160.028)" fill="#2f2e41"/>
  <path id="Path_15" data-name="Path 15" d="M815.185,402.152l-6.951.744s-6.582,4.9-6.582,16.173-1.128,45.112-1.128,45.112-.64.792,4.511,29.323c2.511,13.906,6.849,20.469,6.849,20.469l14-13-1.677-33.408,4.511-18.045Z" transform="translate(-210.34 -160.028)" fill="#2f2e41"/>
  <path id="Path_16" data-name="Path 16" d="M988.66,739.972h-224a1,1,0,0,1,0-2h224a1,1,0,0,1,0,2Z" transform="translate(-210.34 -160.028)" fill="#cbcbcb"/>
  <path id="Path_17" data-name="Path 17" d="M522.66,739.972h-119a1,1,0,0,1,0-2h119a1,1,0,0,1,0,2Z" transform="translate(-210.34 -160.028)" fill="#cbcbcb"/>
  <path id="Path_18" data-name="Path 18" d="M469.745,697.435c-19.511,14.544-25.04,40.135-25.04,40.135s26.1,2.009,45.615-12.535S515.36,684.9,515.36,684.9,489.256,682.891,469.745,697.435Z" transform="translate(-210.34 -160.028)" fill="#f2f2f2"/>
  <path id="Path_19" data-name="Path 19" d="M477.873,704.264c-9.377,22.456-32.862,34.028-32.862,34.028s-8.281-24.837,1.1-47.293,32.862-34.028,32.862-34.028S487.25,681.808,477.873,704.264Z" transform="translate(-210.34 -160.028)" fill="#f2f2f2"/>
</svg>
